<?xml version="1.0" encoding="utf-8"?>
<!-- Generator: Adobe Illustrator 26.0.1, SVG Export Plug-In . SVG Version: 6.00 Build 0)  -->
<svg version="1.1" id="Capa_1" xmlns="http://www.w3.org/2000/svg" xmlns:xlink="http://www.w3.org/1999/xlink" x="0px" y="0px"
	 viewBox="0 0 368 69" style="enable-background:new 0 0 368 69;" xml:space="preserve">
<style type="text/css">
	.st0{fill:#233265;}
</style>
<g>
	<g>
		<path class="st0" d="M128.7,18.8c-8.7,0-15.8,7.1-15.8,15.8c0,8.7,7.1,15.8,15.8,15.8c8.7,0,15.8-7.1,15.8-15.8
			C144.4,25.8,137.4,18.8,128.7,18.8z M128.7,44.3c-5.4,0-9.8-4.4-9.8-9.8c0-5.4,4.4-9.8,9.8-9.8c5.4,0,9.8,4.4,9.8,9.8
			C138.4,39.9,134,44.3,128.7,44.3z"/>
		<g>
			<path class="st0" d="M90.8,18.8c-8.7,0-15.7,7-15.8,15.7h0v34.8c0,0,3.8,0,6.3,0c0,0-0.1-22.2,0-22.1c2.6,2,5.9,3.1,9.5,3.1
				c8.7,0,15.8-7.1,15.8-15.8C106.6,25.9,99.5,18.8,90.8,18.8z M90.8,44.4c-5.4,0-9.8-4.4-9.8-9.8c0-5.4,4.4-9.8,9.8-9.8
				c5.4,0,9.8,4.4,9.8,9.8C100.5,40,96.2,44.4,90.8,44.4z"/>
			<g>
				<polygon class="st0" points="21.3,41.3 21.3,41.3 21.3,41.3 				"/>
			</g>
			<path class="st0" d="M167,44.2L167,44.2c-5.5,0-10-4.5-10-10V0h-6.2v34.2h0c0,8.9,7.3,16.2,16.2,16.2v0c0,0,0,0,0,0h0
				c0.2,0-2,0,2.7,0v-6.2H167z"/>
		</g>
		<path class="st0" d="M64,23.5c-4.2-4.2-10.1-5.5-15.4-4c-0.4,0.1-4.6,1.5-6.9,4L22.8,41.1c-1.1,1-2,1.9-3.4,2.5
			c-1.4,0.6-2.8,0.9-4.3,0.8c-2.3-0.2-4.5-1.1-6.2-2.8c-1.3-1.3-2.2-2.9-2.6-4.6h14L30,28c-0.9-1.7-2.4-3.8-3.1-4.5
			c-6.2-6.2-16.2-6.1-22.3,0c-6.2,6.2-6.1,16.2,0,22.3c4.2,4.2,10.1,5.5,15.4,4c2.5-0.7,5-1.9,7-3.9l20-18.6
			c3.8-3.3,9.2-3.3,12.8,0.3c3.8,3.8,3.8,10,0,13.8c-2.7,2.7-6.7,3.5-10.1,2.3l0,6.2c5,1,10.4-0.4,14.3-4.3
			C70.2,39.7,70.2,29.7,64,23.5z M9,27.7c1.8-1.7,4.2-2.8,6.9-2.8l0,0c2.8,0,5.3,1.2,7,3.1L19,31.5H6.6C7.1,30,7.9,28.7,9,27.7z"/>
	</g>
	<g>
		<g>
			<path class="st0" d="M185.1,21.4V24h4.3v2.4h-4.3V29h5v2.4h-7.8V19h7.8v2.4H185.1z"/>
			<path class="st0" d="M191.3,30.2l1.1-1.8c0.7,0.5,1.9,0.9,2.8,0.9c0.8,0,1.3-0.3,1.3-0.8c0-0.7-0.9-0.7-2.1-1.1
				c-1.3-0.4-2.7-0.9-2.7-2.6c0-1.9,1.7-2.7,3.7-2.7c1.3,0,2.5,0.4,3.3,0.9l-1.1,1.6c-0.7-0.4-1.7-0.7-2.4-0.7
				c-0.7,0-1.1,0.2-1.1,0.7c0,0.6,1,0.8,2.1,1.1c1.7,0.4,2.8,1,2.8,2.7c0,1.9-1.5,3-3.7,3C193.5,31.4,192.1,30.8,191.3,30.2z"/>
			<path class="st0" d="M200.1,26.8c0-2.6,2-4.6,4.7-4.6c1.9,0,3.6,1.1,4.3,2.8l-2.2,0.9c-0.3-0.8-1.1-1.4-2-1.4
				c-1.3,0-2.2,1-2.2,2.2c0,1.3,0.9,2.2,2.2,2.2c0.9,0,1.7-0.5,2-1.3l2.2,0.9c-0.7,1.7-2.3,2.8-4.3,2.8
				C202.1,31.4,200.1,29.4,200.1,26.8z"/>
			<path class="st0" d="M210.5,27.8v-5.5h2.7v5.3c0,1,0.6,1.5,1.4,1.5c0.8,0,1.4-0.5,1.4-1.5v-5.3h2.7v5.5c0,2.2-1.5,3.6-4.1,3.6
				C212,31.4,210.5,30,210.5,27.8z"/>
			<path class="st0" d="M229.6,27.3h-6.6c0.2,1.3,1,2,2.2,2c0.9,0,1.6-0.4,2-1.2l2.1,0.9c-0.7,1.5-2.2,2.4-4.1,2.4
				c-2.9,0-4.8-2-4.8-4.6c0-2.6,2-4.6,4.7-4.6c2.6,0,4.6,1.8,4.6,4.5V27.3z M223.1,25.6h3.8c-0.3-0.9-0.8-1.4-1.8-1.4
				C224,24.2,223.4,24.7,223.1,25.6z"/>
			<path class="st0" d="M231.4,19h2.7v12.4h-2.7V19z"/>
			<path class="st0" d="M245.7,22.3v8.9h-2.4l-0.1-1.2c-0.6,0.8-1.5,1.4-2.9,1.4c-2.3,0-4.3-1.9-4.3-4.6c0-2.7,2-4.6,4.3-4.6
				c1.3,0,2.2,0.5,2.8,1.3v-1H245.7z M243.2,26.7c0-1.3-1-2.3-2.3-2.3c-1.3,0-2.3,1-2.3,2.3s1,2.3,2.3,2.3
				C242.2,29.1,243.2,28,243.2,26.7z"/>
		</g>
		<g>
			<path class="st0" d="M251.6,29.2l1.8-1.8c0.9,1.1,1.7,1.7,2.9,1.7c1,0,1.5-0.5,1.5-1.2c0-1-1.1-1.4-2.4-1.9
				c-1.5-0.6-3.3-1.4-3.3-3.6c0-2.2,1.9-3.5,4-3.5c1.7,0,3,0.8,4,1.8l-1.7,1.6c-0.9-1-1.7-1.2-2.3-1.2c-0.7,0-1.3,0.4-1.3,1
				c0,0.9,1.1,1.3,2.3,1.7c1.6,0.7,3.4,1.5,3.4,3.9c0,2.4-2,3.7-4.2,3.7C254.1,31.4,252.4,30.1,251.6,29.2z"/>
			<path class="st0" d="M262,27.8v-5.5h2.7v5.3c0,1,0.6,1.5,1.4,1.5s1.4-0.5,1.4-1.5v-5.3h2.7v5.5c0,2.2-1.5,3.6-4.1,3.6
				C263.5,31.4,262,30,262,27.8z"/>
			<path class="st0" d="M282.3,26.8c0,2.7-2,4.6-4.3,4.6c-1.3,0-2.2-0.5-2.8-1.3v5.6h-2.7V22.3h2.4l0.1,1.2c0.6-0.8,1.5-1.4,2.9-1.4
				C280.3,22.2,282.3,24.1,282.3,26.8z M279.6,26.8c0-1.3-1-2.3-2.3-2.3c-1.3,0-2.3,1-2.3,2.3c0,1.3,1,2.3,2.3,2.3
				C278.6,29.1,279.6,28.1,279.6,26.8z"/>
			<path class="st0" d="M292.7,27.3h-6.6c0.2,1.3,1,2,2.2,2c0.9,0,1.6-0.4,2-1.2l2.1,0.9c-0.7,1.5-2.2,2.4-4.1,2.4
				c-2.9,0-4.8-2-4.8-4.6c0-2.6,2-4.6,4.7-4.6c2.6,0,4.6,1.8,4.6,4.5V27.3z M286.2,25.6h3.8c-0.3-0.9-0.8-1.4-1.8-1.4
				C287.2,24.2,286.5,24.7,286.2,25.6z"/>
			<path class="st0" d="M301.1,22.6l-0.9,2.3c-0.3-0.2-0.6-0.3-0.9-0.3c-1.1,0-2,1-2,2.5v4.1h-2.7v-8.9h2.7v1.4
				c0.5-1,1.3-1.6,2.4-1.6C300.3,22.2,300.7,22.3,301.1,22.6z"/>
			<path class="st0" d="M302.2,19.3c0-0.8,0.7-1.5,1.5-1.5c0.8,0,1.5,0.7,1.5,1.5c0,0.8-0.7,1.5-1.5,1.5
				C302.9,20.8,302.2,20.1,302.2,19.3z M302.4,22.3h2.6v8.9h-2.6V22.3z"/>
			<path class="st0" d="M306.9,26.8c0-2.6,2-4.6,4.7-4.6c2.7,0,4.7,2,4.7,4.6s-2,4.6-4.7,4.6C308.9,31.4,306.9,29.3,306.9,26.8z
				 M313.8,26.8c0-1.3-1-2.3-2.2-2.3c-1.2,0-2.2,0.9-2.2,2.3c0,1.3,1,2.3,2.2,2.3C312.8,29,313.8,28.1,313.8,26.8z"/>
			<path class="st0" d="M324.7,22.6l-0.9,2.3c-0.3-0.2-0.6-0.3-0.9-0.3c-1.1,0-2,1-2,2.5v4.1h-2.7v-8.9h2.7v1.4
				c0.5-1,1.3-1.6,2.4-1.6C323.9,22.2,324.4,22.3,324.7,22.6z"/>
		</g>
		<path class="st0" d="M192.1,41.7c0,2.1-1.6,3.7-3.7,3.7h-3.2v5.1h-2.8V37.9h6C190.4,37.9,192.1,39.6,192.1,41.7z M189.4,41.7
			c0-0.8-0.7-1.4-1.5-1.4h-2.8V43h2.8C188.8,43,189.4,42.5,189.4,41.7z"/>
		<path class="st0" d="M192.4,45.9c0-2.6,2-4.7,4.8-4.7c2.7,0,4.8,2.1,4.8,4.7s-2.1,4.6-4.8,4.6C194.5,50.6,192.4,48.5,192.4,45.9z
			 M199.4,45.9c0-1.3-1-2.3-2.2-2.3c-1.2,0-2.2,0.9-2.2,2.3c0,1.4,1,2.3,2.2,2.3C198.4,48.2,199.4,47.3,199.4,45.9z"/>
		<path class="st0" d="M203.8,37.9h2.7v12.5h-2.7V37.9z"/>
		<path class="st0" d="M209,38.4c0-0.8,0.7-1.5,1.5-1.5c0.8,0,1.5,0.7,1.5,1.5c0,0.8-0.7,1.5-1.5,1.5C209.7,39.9,209,39.2,209,38.4z
			 M209.2,41.5h2.7v9h-2.7V41.5z"/>
		<path class="st0" d="M219.5,43.5h-1.7v6.9h-2.7v-6.9h-1.7v-2.1h1.7v-3.2h2.7v3.2h1.7V43.5z"/>
		<path class="st0" d="M229.6,46.4h-6.7c0.2,1.3,1,2,2.2,2c0.9,0,1.6-0.4,2.1-1.2l2.1,0.9c-0.7,1.5-2.2,2.4-4.2,2.4
			c-3,0-4.9-2-4.9-4.6c0-2.6,2-4.7,4.8-4.7c2.6,0,4.6,1.8,4.6,4.6V46.4z M223.1,44.7h3.8c-0.3-0.9-0.9-1.4-1.8-1.4
			C224,43.3,223.4,43.9,223.1,44.7z M225,40.5l-1-1.1l2.9-3.1l1.3,1.4L225,40.5z"/>
		<path class="st0" d="M230.7,45.9c0-2.6,2-4.7,4.8-4.7c2,0,3.6,1.1,4.3,2.8l-2.2,0.9c-0.3-0.8-1.1-1.4-2.1-1.4
			c-1.3,0-2.2,1-2.2,2.3c0,1.3,1,2.2,2.2,2.2c1,0,1.7-0.5,2.1-1.4l2.2,0.9c-0.7,1.7-2.3,2.8-4.3,2.8
			C232.7,50.6,230.7,48.5,230.7,45.9z"/>
		<path class="st0" d="M249.9,44.7v5.7h-2.7V45c0-0.9-0.6-1.4-1.5-1.4c-0.9,0-1.5,0.6-1.5,1.5v5.3h-2.7v-9h2.7v0.9
			c0.7-0.7,1.6-1.1,2.5-1.1C248.5,41.3,249.9,42.8,249.9,44.7z"/>
		<path class="st0" d="M252.1,38.4c0-0.8,0.7-1.5,1.5-1.5c0.8,0,1.5,0.7,1.5,1.5c0,0.8-0.7,1.5-1.5,1.5
			C252.8,39.9,252.1,39.2,252.1,38.4z M252.3,41.5h2.7v9h-2.7V41.5z"/>
		<path class="st0" d="M256.8,45.9c0-2.6,2-4.7,4.8-4.7c2,0,3.6,1.1,4.3,2.8l-2.2,0.9c-0.3-0.8-1.1-1.4-2.1-1.4
			c-1.3,0-2.2,1-2.2,2.3c0,1.3,1,2.2,2.2,2.2c1,0,1.7-0.5,2.1-1.4l2.2,0.9c-0.7,1.7-2.3,2.8-4.3,2.8
			C258.9,50.6,256.8,48.5,256.8,45.9z"/>
		<path class="st0" d="M276.7,41.5v9h-2.5l-0.1-1.2c-0.6,0.8-1.5,1.4-3,1.4c-2.3,0-4.3-2-4.3-4.7c0-2.7,2-4.7,4.3-4.7
			c1.3,0,2.2,0.5,2.8,1.3v-1.1H276.7z M274.2,45.9c0-1.3-1-2.3-2.3-2.3c-1.3,0-2.3,1-2.3,2.3s1,2.4,2.3,2.4
			C273.2,48.3,274.2,47.2,274.2,45.9z"/>
		<path class="st0" d="M293.1,37.9v12.5h-2.5l-0.1-1.2c-0.6,0.8-1.5,1.4-3,1.4c-2.3,0-4.3-2-4.3-4.7c0-2.7,2-4.7,4.3-4.7
			c1.3,0,2.2,0.5,2.8,1.3v-4.6H293.1z M290.6,45.9c0-1.3-1-2.3-2.3-2.3c-1.3,0-2.3,1-2.3,2.3s1,2.4,2.3,2.4
			C289.5,48.3,290.6,47.2,290.6,45.9z"/>
		<path class="st0" d="M304.3,46.4h-6.7c0.2,1.3,1,2,2.2,2c0.9,0,1.6-0.4,2.1-1.2l2.1,0.9c-0.7,1.5-2.2,2.4-4.2,2.4
			c-3,0-4.9-2-4.9-4.6c0-2.6,2-4.7,4.8-4.7c2.6,0,4.6,1.8,4.6,4.6V46.4z M297.8,44.7h3.8c-0.3-0.9-0.9-1.4-1.8-1.4
			C298.8,43.3,298.1,43.9,297.8,44.7z"/>
		<path class="st0" d="M306.2,37.9h2.7v12.5h-2.7V37.9z"/>
		<g>
			<path class="st0" d="M321.6,48v2.4h-6.7V37.9h2.7V48H321.6z"/>
			<path class="st0" d="M322.9,38.4c0-0.8,0.7-1.5,1.5-1.5c0.8,0,1.5,0.7,1.5,1.5c0,0.8-0.7,1.5-1.5,1.5
				C323.6,39.9,322.9,39.2,322.9,38.4z M323.1,41.5h2.7v9h-2.7V41.5z"/>
			<path class="st0" d="M333.4,43.5h-1.7v6.9H329v-6.9h-1.7v-2.1h1.7v-3.2h2.7v3.2h1.7V43.5z"/>
			<path class="st0" d="M334.1,45.9c0-2.6,2-4.7,4.8-4.7c2.7,0,4.8,2.1,4.8,4.7s-2.1,4.6-4.8,4.6C336.1,50.6,334.1,48.5,334.1,45.9z
				 M341.1,45.9c0-1.3-1-2.3-2.2-2.3c-1.2,0-2.2,0.9-2.2,2.3c0,1.4,1,2.3,2.2,2.3C340.1,48.2,341.1,47.3,341.1,45.9z"/>
			<path class="st0" d="M352.1,41.7l-0.9,2.3c-0.3-0.2-0.6-0.3-0.9-0.3c-1.1,0-2.1,1-2.1,2.5v4.1h-2.7v-9h2.7v1.4
				c0.5-1,1.3-1.6,2.5-1.6C351.3,41.3,351.7,41.5,352.1,41.7z"/>
			<path class="st0" d="M362.2,41.5v9h-2.5l-0.1-1.2c-0.6,0.8-1.5,1.4-3,1.4c-2.3,0-4.3-2-4.3-4.7c0-2.7,2-4.7,4.3-4.7
				c1.3,0,2.2,0.5,2.8,1.3v-1.1H362.2z M359.7,45.9c0-1.3-1-2.3-2.3-2.3c-1.3,0-2.3,1-2.3,2.3s1,2.4,2.3,2.4
				C358.6,48.3,359.7,47.2,359.7,45.9z"/>
			<path class="st0" d="M364.8,37.9h2.7v12.5h-2.7V37.9z"/>
		</g>
	</g>
</g>
</svg>
