<svg width="26" height="26" viewBox="0 0 26 26" fill="none" xmlns="http://www.w3.org/2000/svg">
<g clip-path="url(#clip0_24_328)">
<path d="M13.111 0.277344C9.66989 0.277344 9.24028 0.293177 7.88917 0.353344C6.54017 0.416677 5.62183 0.628844 4.81433 0.942344C3.9815 1.26534 3.27428 1.69918 2.57022 2.40323C1.86617 3.10729 1.43128 3.81345 1.10934 4.64734C0.795836 5.45484 0.582614 6.37318 0.520336 7.72218C0.457003 9.07329 0.444336 9.5029 0.444336 12.944C0.444336 16.3851 0.460169 16.8147 0.520336 18.1658C0.583669 19.5138 0.795836 20.4332 1.10934 21.2407C1.43234 22.0725 1.86617 22.7807 2.57022 23.4848C3.27428 24.1878 3.98045 24.6237 4.81433 24.9457C5.62289 25.2581 6.54122 25.4724 7.88917 25.5347C9.24028 25.598 9.66989 25.6107 13.111 25.6107C16.5521 25.6107 16.9817 25.5948 18.3328 25.5347C19.6808 25.4713 20.6002 25.2581 21.4077 24.9457C22.2394 24.6227 22.9477 24.1878 23.6518 23.4848C24.3548 22.7807 24.7907 22.0756 25.1127 21.2407C25.4251 20.4332 25.6394 19.5138 25.7017 18.1658C25.765 16.8147 25.7777 16.3851 25.7777 12.944C25.7777 9.5029 25.7618 9.07329 25.7017 7.72218C25.6383 6.37423 25.4251 5.45379 25.1127 4.64734C24.7897 3.81451 24.3548 3.10729 23.6518 2.40323C22.9477 1.69918 22.2426 1.26429 21.4077 0.942344C20.6002 0.628844 19.6808 0.415622 18.3328 0.353344C16.9817 0.29001 16.5521 0.277344 13.111 0.277344ZM13.111 2.55734C16.4919 2.55734 16.8952 2.57423 18.2304 2.63229C19.4654 2.69034 20.1357 2.89512 20.5812 3.07034C21.1744 3.2994 21.5945 3.57384 22.0399 4.01612C22.4822 4.45945 22.7567 4.88062 22.9857 5.47384C23.1588 5.91929 23.3657 6.58956 23.4217 7.82456C23.4818 9.1609 23.4956 9.56201 23.4956 12.944C23.4956 16.326 23.4797 16.7282 23.4174 18.0635C23.3531 19.2985 23.1472 19.9687 22.9731 20.4142C22.7366 21.0074 22.4674 21.4275 22.0241 21.8729C21.5818 22.3152 21.1543 22.5897 20.5674 22.8187C20.1241 22.9918 19.4433 23.1987 18.2083 23.2547C16.8635 23.3148 16.4677 23.3286 13.0793 23.3286C9.68995 23.3286 9.29411 23.3127 7.95039 23.2505C6.71433 23.1861 6.0335 22.9802 5.59017 22.8061C4.98956 22.5696 4.57684 22.3005 4.13456 21.8571C3.69017 21.4148 3.40622 20.9873 3.18456 20.4004C3.01039 19.9571 2.80561 19.2763 2.74122 18.0413C2.69372 16.7113 2.67684 16.3007 2.67684 12.9282C2.67684 9.55462 2.69372 9.14295 2.74122 7.79712C2.80561 6.56212 3.01039 5.88234 3.18456 5.43901C3.40622 4.83734 3.69017 4.42568 4.13456 3.98129C4.57684 3.53901 4.98956 3.25401 5.59017 3.0334C6.0335 2.85818 6.69956 2.65234 7.93456 2.58901C9.28039 2.54151 9.67622 2.52568 13.0635 2.52568L13.111 2.55734ZM13.111 6.43968C9.51683 6.43968 6.60667 9.35301 6.60667 12.944C6.60667 16.5382 9.52 19.4483 13.111 19.4483C16.7052 19.4483 19.6153 16.535 19.6153 12.944C19.6153 9.34984 16.702 6.43968 13.111 6.43968ZM13.111 17.1662C10.7782 17.1662 8.88878 15.2768 8.88878 12.944C8.88878 10.6112 10.7782 8.72179 13.111 8.72179C15.4438 8.72179 17.3332 10.6112 17.3332 12.944C17.3332 15.2768 15.4438 17.1662 13.111 17.1662ZM21.3929 6.18318C21.3929 7.02234 20.711 7.70318 19.8729 7.70318C19.0337 7.70318 18.3529 7.02129 18.3529 6.18318C18.3529 5.34506 19.0348 4.66423 19.8729 4.66423C20.7099 4.66318 21.3929 5.34506 21.3929 6.18318Z" fill="#FF6161"/>
</g>
<defs>
<clipPath id="clip0_24_328">
<rect width="25.3333" height="25.3333" fill="white" transform="translate(0.444336 0.277344)"/>
</clipPath>
</defs>
</svg>
