<svg width="24" height="24" viewBox="0 0 24 24" fill="none" xmlns="http://www.w3.org/2000/svg">
<g clip-path="url(#clip0_19_157)">
<path d="M22.8576 6.1211C22.8484 6.0345 22.809 5.9613 22.7366 5.9107C22.7382 5.9098 12.1195 0.0320013 12.1186 0.0300013C12.0822 0.0102475 12.0414 -9.91821e-05 12 -9.91821e-05C11.9586 -9.91821e-05 11.9178 0.0102475 11.8814 0.0300013C11.8784 0.0300013 1.26848 5.9084 1.26688 5.9097C1.19248 5.9594 1.15128 6.0338 1.14258 6.1221V17.9586C1.15748 18.0151 1.16038 18.0839 1.21358 18.1196C1.23188 18.1984 11.8311 23.9181 11.883 23.9703C11.9189 23.9898 11.9592 24 12.0001 24C12.041 24 12.0813 23.9898 12.1173 23.9703C12.1198 23.9686 22.7308 18.1746 22.732 18.1719C22.8068 18.123 22.847 18.0457 22.8576 17.9586V6.1211ZM5.22458 15.4503L1.63238 17.534V6.5401L5.22458 8.5511V15.4503ZM18.7756 8.551L22.3678 6.5401V17.5339L18.7756 15.4503V8.551ZM18.0349 8.4055C16.0234 9.5371 14.0117 10.6685 12.0001 11.7998C9.98841 10.6684 7.97678 9.53699 5.96518 8.4055L12.0001 4.9349L18.0349 8.4055ZM5.71438 15.4473V8.8265L11.7552 12.2245V18.7689L5.71438 15.4473ZM12.2449 18.7689V12.2245L18.2858 8.8265V15.4473C16.2723 16.5547 14.2586 17.6618 12.245 18.7689H12.2449ZM12.0001 0.524701L22.1095 6.1231L18.5324 8.1261L12.122 4.4403C12.085 4.41869 12.0429 4.4073 12 4.4073C11.9572 4.4073 11.9151 4.41869 11.8781 4.4403L5.46768 8.126L1.89068 6.123L12.0001 0.524801V0.524701ZM5.47288 15.8731L11.7552 19.3278V23.3418L1.88688 17.952L5.47288 15.8731ZM12.2449 23.3417V19.3277L18.5273 15.8731L22.1133 17.952L12.2449 23.3417Z" fill="#FF6161"/>
</g>
<defs>
<clipPath id="clip0_19_157">
<rect width="24" height="24" fill="white"/>
</clipPath>
</defs>
</svg>
