<svg width="19" height="18" viewBox="0 0 19 18" fill="none" xmlns="http://www.w3.org/2000/svg">
<path d="M6.592 8.692H10.92C10.92 8.692 13.352 8.731 13.352 6.342V2.391C13.352 2.391 13.721 0 8.943 0C4.369 0 4.654 1.983 4.654 1.983L4.66 4.038H9.023V4.655H2.927C2.927 4.655 0 4.323 0 8.937C0 13.551 2.555 13.387 2.555 13.387H4.079V11.246C4.079 11.246 3.996 8.692 6.592 8.692ZM6.536 2.952C6.32781 2.952 6.12814 2.86929 5.98092 2.72208C5.8337 2.57486 5.751 2.37519 5.751 2.167C5.751 1.9588 5.8337 1.75914 5.98092 1.61192C6.12814 1.46471 6.32781 1.382 6.536 1.382C6.7442 1.382 6.94386 1.46471 7.09108 1.61192C7.23829 1.75914 7.321 1.9588 7.321 2.167C7.321 2.37519 7.23829 2.57486 7.09108 2.72208C6.94386 2.86929 6.7442 2.952 6.536 2.952Z" fill="#FF6161"/>
<path d="M15.4591 4.532H13.9351V6.673C13.9351 6.673 14.0181 9.227 11.4221 9.227H7.09412C7.09412 9.227 4.66212 9.187 4.66212 11.577V15.528C4.66212 15.528 4.29312 17.919 9.07112 17.919C13.6441 17.919 13.3591 15.936 13.3591 15.936L13.3531 13.882H8.99012V13.265H15.0871C15.0871 13.265 18.0141 13.597 18.0141 8.983C18.0141 4.369 15.4591 4.532 15.4591 4.532V4.532ZM11.4781 14.968C11.6863 14.968 11.886 15.0507 12.0332 15.1979C12.1804 15.3451 12.2631 15.5448 12.2631 15.753C12.2631 15.9612 12.1804 16.1609 12.0332 16.3081C11.886 16.4553 11.6863 16.538 11.4781 16.538C11.2699 16.538 11.0703 16.4553 10.923 16.3081C10.7758 16.1609 10.6931 15.9612 10.6931 15.753C10.6931 15.5448 10.7758 15.3451 10.923 15.1979C11.0703 15.0507 11.2699 14.968 11.4781 14.968V14.968Z" fill="#FF6161"/>
</svg>
