<svg width="26" height="18" viewBox="0 0 26 18" fill="none" xmlns="http://www.w3.org/2000/svg">
<path d="M25.1368 2.80725C24.9937 2.26815 24.7115 1.77612 24.3183 1.38042C23.9252 0.984721 23.4351 0.699247 22.8969 0.552587C20.922 0.0195314 13 0.0195312 13 0.0195312C13 0.0195312 5.07809 0.0195314 3.1021 0.552587C2.56419 0.699505 2.0743 0.985083 1.6814 1.38076C1.28851 1.77643 1.00639 2.26833 0.863263 2.80725C0.333374 4.79592 0.333374 8.94425 0.333374 8.94425C0.333374 8.94425 0.333374 13.0926 0.863263 15.0812C1.00638 15.6203 1.28863 16.1124 1.68173 16.5081C2.07484 16.9038 2.56501 17.1893 3.10315 17.3359C5.0781 17.869 13 17.869 13 17.869C13 17.869 20.922 17.869 22.898 17.3359C23.4362 17.1894 23.9264 16.9039 24.3195 16.5082C24.7126 16.1125 24.9948 15.6204 25.1379 15.0812C25.6667 13.0926 25.6667 8.94425 25.6667 8.94425C25.6667 8.94425 25.6667 4.79592 25.1368 2.80725ZM10.4086 12.7105V5.17803L17.0301 8.94425L10.4086 12.7105Z" fill="#FF6161"/>
</svg>
