<svg width="24" height="24" viewBox="0 0 24 24" fill="none" xmlns="http://www.w3.org/2000/svg">
<path d="M7.833 6.666V6.611C7.833 5.611 7.166 5.111 6.055 5.111H4.389V8.166H6.112C7.223 8.166 7.833 7.5 7.833 6.666ZM0 0V24H24V0H0ZM2.223 3.167H6.223C8.612 3.167 10.056 4.556 10.056 6.612V6.667C10.056 8.945 8.278 10.167 6.055 10.167H4.389V13.112H2.223V3.167ZM11.277 21H2.277V19.5H11.277V21ZM16.056 13.223C13.112 13.278 10.945 11 10.945 8.166C10.944 5.333 13.056 3 16.111 3C18 3 19.111 3.611 20.055 4.556L18.666 6.166C17.888 5.444 17.11 5.055 16.11 5.055C14.452 5.055 13.237 6.43 13.223 8.139C13.237 9.848 14.397 11.222 16.11 11.222C17.221 11.222 17.943 10.777 18.72 10.055L20.11 11.444C19.111 12.556 17.944 13.223 16.056 13.223Z" fill="#FF6161"/>
</svg>
