<svg xmlns="http://www.w3.org/2000/svg" xmlns:xlink="http://www.w3.org/1999/xlink" width="500" zoomAndPan="magnify" viewBox="0 0 375 374.999991" height="500" preserveAspectRatio="xMidYMid meet" version="1.0"><defs><g/></defs><g fill="#243363" fill-opacity="1"><g transform="translate(57.525455, 199.874987)"><g><path d="M 23.128906 -23.433594 C 23.128906 -23.496094 23.070312 -23.554688 23.007812 -23.679688 C 22.945312 -23.921875 22.519531 -24.898438 22.398438 -25.082031 L 22.214844 -25.449219 C 21.847656 -26.304688 21.175781 -27.21875 20.382812 -27.765625 C 20.140625 -27.890625 19.957031 -28.011719 19.710938 -28.074219 L 19.40625 -28.253906 C 18.550781 -28.867188 16.722656 -29.355469 15.683594 -29.539062 L 15.378906 -29.539062 C 15.195312 -29.539062 15.074219 -29.539062 14.953125 -29.597656 C 13.304688 -30.695312 10.4375 -31.246094 8.054688 -31.246094 C 5.1875 -31.246094 2.929688 -30.515625 3.84375 -29.050781 C 3.84375 -28.925781 3.785156 -28.742188 3.785156 -28.621094 C 3.601562 -27.707031 3.480469 -26.792969 3.355469 -25.691406 C 3.355469 -25.203125 3.296875 -24.59375 3.234375 -24.042969 L 3.113281 -21.359375 C 3.113281 -20.992188 3.050781 -20.628906 3.050781 -20.261719 C 3.113281 -19.773438 3.050781 -19.222656 3.050781 -18.796875 L 3.050781 -15.5 C 3.050781 -14.523438 3.050781 -13.488281 2.929688 -12.570312 C 2.929688 -11.65625 2.929688 -10.800781 2.867188 -9.886719 C 2.808594 -9.335938 2.808594 -8.789062 2.808594 -8.238281 C 2.746094 -6.652344 2.683594 -5.25 2.503906 -3.90625 C 2.441406 -3.296875 2.441406 -2.625 2.320312 -2.074219 C 2.257812 -1.953125 2.257812 -1.832031 2.257812 -1.707031 C 2.257812 -1.527344 2.378906 -1.34375 2.441406 -1.160156 L 2.136719 -0.425781 L 1.769531 0.121094 C 1.769531 0.367188 1.769531 0.550781 1.890625 0.671875 C 1.953125 0.855469 2.074219 0.976562 2.195312 1.097656 L 2.5625 1.28125 C 2.746094 1.402344 2.992188 1.464844 3.234375 1.527344 L 3.355469 1.527344 C 3.90625 1.527344 4.210938 1.160156 4.636719 1.039062 C 4.636719 1.28125 4.761719 1.527344 4.882812 1.707031 C 5.003906 2.015625 5.125 2.320312 5.429688 2.503906 C 5.492188 2.5625 5.675781 2.625 5.859375 2.683594 C 5.980469 2.683594 6.164062 2.683594 6.285156 2.625 C 6.347656 2.683594 6.46875 2.683594 6.589844 2.683594 C 7.261719 2.683594 7.8125 2.625 8.484375 2.441406 C 8.847656 2.320312 9.152344 2.195312 9.335938 2.074219 C 10.253906 1.648438 10.863281 1.160156 11.230469 0.976562 L 11.898438 0.609375 C 11.898438 0.550781 11.960938 0.550781 12.082031 0.488281 L 12.144531 0.488281 L 13.363281 -0.183594 C 14.402344 -0.855469 15.195312 -1.464844 15.867188 -2.320312 L 16.417969 -3.113281 C 16.417969 -3.171875 16.476562 -3.171875 16.539062 -3.296875 L 18.675781 -6.714844 C 18.917969 -7.078125 19.164062 -7.324219 19.347656 -7.566406 C 19.773438 -8.175781 19.957031 -8.847656 20.261719 -9.519531 C 20.261719 -9.582031 20.320312 -9.765625 20.382812 -9.886719 C 20.445312 -10.128906 20.566406 -10.3125 20.628906 -10.4375 L 20.628906 -10.496094 L 20.6875 -10.496094 C 20.75 -10.742188 20.933594 -11.230469 21.054688 -11.351562 L 22.398438 -15.316406 C 22.398438 -15.441406 22.519531 -15.867188 22.582031 -15.929688 L 22.824219 -16.660156 C 22.945312 -17.085938 23.070312 -17.574219 23.128906 -18.125 L 23.3125 -19.347656 C 23.3125 -19.46875 23.375 -19.589844 23.375 -19.710938 L 23.375 -21.359375 C 23.375 -21.847656 23.25 -22.398438 23.191406 -22.886719 C 23.191406 -22.886719 23.25 -23.007812 23.191406 -23.070312 L 23.191406 -23.3125 C 23.128906 -23.375 23.128906 -23.375 23.128906 -23.433594 Z M 12.082031 -7.324219 C 12.023438 -7.261719 11.898438 -7.203125 11.839844 -7.078125 C 11.59375 -6.773438 11.351562 -6.40625 10.984375 -6.101562 C 10.679688 -5.738281 10.375 -5.308594 10.128906 -5.066406 C 10.070312 -5.003906 9.949219 -4.941406 9.824219 -4.941406 L 9.824219 -4.882812 C 9.824219 -4.820312 9.640625 -4.699219 9.519531 -4.578125 C 9.335938 -4.394531 9.03125 -4.273438 8.789062 -4.089844 L 6.894531 -3.234375 L 6.835938 -3.234375 L 7.382812 -6.40625 C 7.507812 -6.957031 7.566406 -7.507812 7.628906 -8.054688 C 7.75 -8.789062 7.871094 -9.519531 7.933594 -10.253906 L 8.054688 -10.863281 C 8.117188 -11.105469 8.054688 -11.289062 8.117188 -11.535156 C 8.300781 -12.386719 8.359375 -13.304688 8.484375 -14.097656 L 8.789062 -16.722656 C 8.789062 -17.332031 8.910156 -17.820312 8.847656 -18.246094 C 8.847656 -18.429688 8.910156 -18.675781 8.910156 -18.859375 C 8.910156 -19.347656 8.847656 -19.894531 8.789062 -20.445312 C 8.726562 -21.847656 8.421875 -23.25 8.789062 -24.351562 C 8.972656 -25.328125 9.824219 -25.570312 10.679688 -25.816406 C 10.984375 -25.875 11.351562 -25.9375 11.71875 -25.9375 C 11.960938 -25.9375 12.207031 -25.9375 12.511719 -25.875 C 12.632812 -25.875 12.816406 -25.875 12.9375 -25.816406 C 13.363281 -25.753906 13.851562 -25.691406 14.28125 -25.507812 C 15.441406 -25.144531 16.050781 -24.714844 16.476562 -23.433594 C 16.539062 -23.191406 16.597656 -22.945312 16.597656 -22.640625 C 16.660156 -22.214844 16.597656 -21.96875 16.597656 -21.421875 L 16.597656 -19.652344 C 16.597656 -19.222656 16.539062 -18.796875 16.476562 -18.1875 L 16.171875 -16.476562 C 15.988281 -15.5 15.683594 -14.402344 15.316406 -13.425781 C 15.195312 -12.9375 15.074219 -12.511719 14.828125 -12.082031 C 14.464844 -11.167969 14.035156 -10.191406 13.546875 -9.398438 L 13.304688 -8.972656 C 13 -8.542969 12.753906 -8.054688 12.328125 -7.628906 Z M 12.082031 -7.324219 "/></g></g></g><g fill="#243363" fill-opacity="1"><g transform="translate(93.711745, 199.874987)"><g><path d="M 18.492188 -24.65625 C 18.550781 -25.507812 18.734375 -26.609375 18.613281 -27.523438 C 18.371094 -29.84375 14.648438 -31.246094 12.695312 -32.222656 L 11.898438 -31.796875 L 11.777344 -31.429688 C 11.535156 -31.246094 9.519531 -25.816406 9.09375 -25.019531 C 7.75 -22.457031 5.980469 -19.347656 5.25 -16.539062 C 4.578125 -15.621094 2.441406 -13.488281 2.5625 -12.328125 C 2.5625 -12.023438 2.867188 -11.59375 3.113281 -11.472656 L 3.785156 -11.535156 C 2.683594 -9.460938 1.527344 -6.285156 0.914062 -3.84375 L 0.488281 -3.234375 C 0.425781 -2.625 -0.304688 -0.855469 -0.730469 -0.425781 C -0.792969 0.367188 -1.097656 1.21875 -1.039062 2.074219 C -0.855469 2.378906 -0.792969 2.683594 -0.367188 2.683594 L 0.671875 2.074219 L 1.039062 2.074219 C 1.648438 1.832031 1.769531 1.039062 2.257812 0.609375 L 3.722656 -3.113281 L 3.785156 -3.113281 C 4.636719 -5.25 6.101562 -7.203125 7.140625 -9.277344 C 9.335938 -9.886719 11.472656 -10.128906 13.609375 -10.984375 C 13.851562 -8.542969 13.304688 -6.101562 13.609375 -3.601562 C 13.792969 -1.832031 14.953125 0 15.136719 1.769531 C 15.867188 2.5625 16.84375 4.882812 18.1875 4.882812 L 18.308594 4.882812 C 20.140625 4.699219 20.808594 4.210938 20.628906 2.378906 C 20.566406 1.890625 20.503906 1.464844 20.261719 1.097656 C 20.261719 0.914062 20.261719 -6.773438 20.140625 -8.117188 C 19.894531 -10.070312 19.222656 -13.914062 19.652344 -15.316406 C 19.832031 -15.5 21.175781 -17.027344 21.175781 -17.148438 C 21.117188 -17.882812 20.6875 -17.882812 20.078125 -17.882812 C 20.015625 -17.820312 19.773438 -17.574219 19.589844 -17.574219 C 19.527344 -17.574219 19.46875 -17.636719 19.40625 -17.757812 L 19.40625 -21.296875 C 19.039062 -22.398438 18.734375 -23.554688 18.492188 -24.65625 Z M 8.054688 -12.386719 C 8.300781 -13.609375 10.742188 -21.847656 11.230469 -22.761719 L 11.777344 -23.3125 L 11.839844 -23.3125 C 12.328125 -23.554688 12.816406 -23.863281 13.242188 -24.289062 C 13.304688 -24.105469 13.363281 -23.863281 13.425781 -23.679688 C 13.730469 -20.503906 13.121094 -17.148438 13.488281 -13.914062 C 11.898438 -13.242188 9.765625 -12.570312 8.054688 -12.386719 Z M 8.054688 -12.386719 "/></g></g></g><g fill="#243363" fill-opacity="1"><g transform="translate(128.06745, 199.874987)"><g><path d="M 20.6875 -32.40625 C 19.832031 -31.976562 18.492188 -27.828125 18.308594 -26.972656 L 18.246094 -26.972656 C 17.574219 -23.921875 15.011719 -20.140625 14.160156 -16.539062 C 13.242188 -12.816406 12.082031 -9.949219 10.679688 -6.46875 C 9.886719 -7.261719 9.398438 -14.339844 9.398438 -15.746094 C 9.398438 -16.660156 9.152344 -17.574219 9.152344 -18.371094 C 9.152344 -22.945312 7.933594 -28.074219 5.738281 -32.101562 C 4.820312 -32.773438 4.089844 -34.238281 2.808594 -34.238281 C 2.378906 -34.238281 1.832031 -34.238281 1.464844 -34.054688 C 1.402344 -34.113281 1.34375 -34.113281 1.28125 -34.113281 C 0.855469 -34.113281 0.367188 -33.503906 0.367188 -33.136719 C 0.367188 -32.710938 0.425781 -32.285156 0.609375 -31.855469 L 0.609375 -31.613281 C 2.136719 -28.5 4.210938 -19.527344 4.210938 -16.234375 C 4.210938 -14.28125 5.066406 -8.054688 5.738281 -7.140625 C 5.738281 -2.195312 7.078125 -2.808594 9.949219 0.242188 L 10.742188 0.550781 C 13.058594 0.609375 20.261719 -26.730469 20.992188 -27.21875 C 21.296875 -28.742188 22.640625 -30.207031 22.824219 -31.613281 L 22.761719 -31.671875 C 22.761719 -32.101562 22.886719 -33.078125 22.03125 -33.078125 C 21.847656 -33.078125 21.117188 -32.773438 20.933594 -32.710938 Z M 20.6875 -32.40625 "/></g></g></g><g fill="#243363" fill-opacity="1"><g transform="translate(161.935001, 199.874987)"><g><path d="M 18.492188 -24.65625 C 18.550781 -25.507812 18.734375 -26.609375 18.613281 -27.523438 C 18.371094 -29.84375 14.648438 -31.246094 12.695312 -32.222656 L 11.898438 -31.796875 L 11.777344 -31.429688 C 11.535156 -31.246094 9.519531 -25.816406 9.09375 -25.019531 C 7.75 -22.457031 5.980469 -19.347656 5.25 -16.539062 C 4.578125 -15.621094 2.441406 -13.488281 2.5625 -12.328125 C 2.5625 -12.023438 2.867188 -11.59375 3.113281 -11.472656 L 3.785156 -11.535156 C 2.683594 -9.460938 1.527344 -6.285156 0.914062 -3.84375 L 0.488281 -3.234375 C 0.425781 -2.625 -0.304688 -0.855469 -0.730469 -0.425781 C -0.792969 0.367188 -1.097656 1.21875 -1.039062 2.074219 C -0.855469 2.378906 -0.792969 2.683594 -0.367188 2.683594 L 0.671875 2.074219 L 1.039062 2.074219 C 1.648438 1.832031 1.769531 1.039062 2.257812 0.609375 L 3.722656 -3.113281 L 3.785156 -3.113281 C 4.636719 -5.25 6.101562 -7.203125 7.140625 -9.277344 C 9.335938 -9.886719 11.472656 -10.128906 13.609375 -10.984375 C 13.851562 -8.542969 13.304688 -6.101562 13.609375 -3.601562 C 13.792969 -1.832031 14.953125 0 15.136719 1.769531 C 15.867188 2.5625 16.84375 4.882812 18.1875 4.882812 L 18.308594 4.882812 C 20.140625 4.699219 20.808594 4.210938 20.628906 2.378906 C 20.566406 1.890625 20.503906 1.464844 20.261719 1.097656 C 20.261719 0.914062 20.261719 -6.773438 20.140625 -8.117188 C 19.894531 -10.070312 19.222656 -13.914062 19.652344 -15.316406 C 19.832031 -15.5 21.175781 -17.027344 21.175781 -17.148438 C 21.117188 -17.882812 20.6875 -17.882812 20.078125 -17.882812 C 20.015625 -17.820312 19.773438 -17.574219 19.589844 -17.574219 C 19.527344 -17.574219 19.46875 -17.636719 19.40625 -17.757812 L 19.40625 -21.296875 C 19.039062 -22.398438 18.734375 -23.554688 18.492188 -24.65625 Z M 8.054688 -12.386719 C 8.300781 -13.609375 10.742188 -21.847656 11.230469 -22.761719 L 11.777344 -23.3125 L 11.839844 -23.3125 C 12.328125 -23.554688 12.816406 -23.863281 13.242188 -24.289062 C 13.304688 -24.105469 13.363281 -23.863281 13.425781 -23.679688 C 13.730469 -20.503906 13.121094 -17.148438 13.488281 -13.914062 C 11.898438 -13.242188 9.765625 -12.570312 8.054688 -12.386719 Z M 8.054688 -12.386719 "/></g></g></g><g fill="#243363" fill-opacity="1"><g transform="translate(196.290712, 199.874987)"><g><path d="M 8.847656 -22.214844 C 9.152344 -23.191406 9.582031 -24.226562 9.582031 -25.265625 C 9.582031 -26.304688 9.582031 -27.523438 9.335938 -28.5625 L 9.519531 -29.476562 C 9.09375 -31.0625 7.445312 -32.527344 5.796875 -32.527344 C 4.515625 -32.527344 4.394531 -31.308594 4.394531 -30.332031 C 4.273438 -30.085938 1.039062 -5.554688 1.039062 -3.660156 C 1.039062 -1.648438 -0.671875 -2.136719 -0.671875 -0.121094 C -0.671875 1.28125 1.585938 1.402344 2.5625 1.402344 C 7.628906 1.402344 12.695312 0.914062 17.515625 -0.609375 C 17.757812 -0.855469 17.941406 -1.21875 18.003906 -1.527344 C 17.882812 -1.953125 17.574219 -2.378906 17.148438 -2.441406 L 16.417969 -2.257812 L 15.988281 -2.746094 C 15.074219 -2.625 14.28125 -2.5625 13.546875 -2.5625 C 12.082031 -2.5625 10.863281 -2.746094 9.152344 -3.050781 C 8.726562 -2.867188 8.300781 -2.746094 7.871094 -2.746094 L 8.054688 -2.929688 C 7.628906 -2.929688 7.078125 -2.808594 6.714844 -2.625 L 7.140625 -3.296875 L 7.078125 -3.296875 C 7.078125 -3.296875 7.140625 -3.539062 6.957031 -3.539062 C 6.957031 -4.332031 6.957031 -5.25 7.078125 -6.042969 L 7.019531 -6.101562 C 7.019531 -8.117188 8.175781 -10.3125 8.238281 -12.449219 C 8.300781 -15.074219 9.09375 -17.636719 9.09375 -20.261719 C 9.09375 -20.871094 9.09375 -21.421875 8.910156 -22.03125 Z M 8.847656 -22.214844 "/></g></g></g><g fill="#243363" fill-opacity="1"><g transform="translate(226.436073, 199.874987)"><g><path d="M 2.195312 -5.308594 C 2.257812 -4.882812 2.257812 -4.453125 2.195312 -4.027344 C 2.257812 -3.660156 2.195312 -3.234375 2.195312 -2.867188 L 2.195312 -2.195312 C 2.320312 -1.402344 2.929688 -0.792969 3.417969 -0.488281 C 3.601562 -0.488281 3.785156 -0.550781 3.964844 -0.609375 L 4.332031 -0.855469 C 4.515625 -0.242188 5.675781 0.488281 6.164062 0.855469 L 7.933594 1.707031 C 8.117188 1.769531 8.542969 1.832031 8.789062 1.832031 C 8.910156 1.832031 9.03125 1.769531 9.214844 1.769531 C 9.519531 1.707031 9.765625 1.648438 10.070312 1.648438 C 10.253906 1.585938 10.375 1.585938 10.558594 1.585938 C 12.144531 1.34375 13.609375 0.914062 15.136719 0.183594 C 17.027344 -0.488281 19.164062 -2.503906 20.015625 -4.332031 L 20.199219 -4.761719 C 20.6875 -5.675781 21.054688 -6.714844 21.175781 -7.75 C 21.175781 -7.871094 21.238281 -8.054688 21.238281 -8.175781 L 21.238281 -8.664062 L 21.054688 -9.582031 C 20.992188 -9.765625 20.933594 -9.949219 20.933594 -10.128906 C 20.871094 -10.4375 20.75 -10.679688 20.566406 -10.863281 C 20.566406 -11.230469 20.382812 -11.59375 20.261719 -11.839844 C 20.199219 -12.082031 20.078125 -12.207031 20.140625 -12.386719 C 20.015625 -12.511719 19.894531 -12.570312 19.773438 -12.632812 L 19.773438 -12.753906 C 19.347656 -13.121094 18.980469 -13.425781 18.492188 -13.671875 L 17.699219 -14.160156 C 17.210938 -14.464844 16.597656 -14.707031 15.988281 -14.890625 L 15.5 -15.074219 C 15.804688 -15.378906 16.234375 -15.683594 16.660156 -16.171875 C 17.941406 -17.699219 19.039062 -19.589844 19.101562 -21.542969 C 19.101562 -23.25 18.371094 -25.386719 16.722656 -26.121094 C 16.234375 -26.425781 15.316406 -26.667969 14.707031 -26.730469 L 11.046875 -26.730469 C 10.742188 -26.851562 10.375 -26.851562 10.007812 -26.851562 C 8.542969 -26.851562 6.652344 -26.179688 4.027344 -25.449219 L 2.5625 -23.496094 C 2.5625 -21.296875 2.5625 -18.613281 2.503906 -15.929688 C 2.503906 -15.011719 2.441406 -14.097656 2.441406 -13.183594 C 2.441406 -11.71875 2.378906 -10.3125 2.378906 -9.03125 L 2.378906 -8.175781 C 2.378906 -7.75 2.320312 -7.261719 2.195312 -6.835938 C 2.195312 -6.53125 2.195312 -6.285156 2.136719 -6.101562 C 2.195312 -5.796875 2.195312 -5.554688 2.195312 -5.308594 Z M 8.175781 -9.277344 C 8.238281 -10.128906 8.359375 -10.984375 8.847656 -11.59375 L 9.765625 -12.386719 C 10.375 -12.386719 11.046875 -12.449219 11.59375 -12.449219 C 12.144531 -12.449219 12.695312 -12.449219 13.242188 -12.265625 C 13.609375 -12.207031 13.851562 -12.082031 14.160156 -12.023438 L 14.28125 -11.839844 C 15.441406 -11.472656 15.746094 -10.007812 15.746094 -8.972656 C 15.683594 -8.484375 15.195312 -6.835938 14.828125 -6.46875 C 14.585938 -6.042969 14.339844 -5.738281 14.097656 -5.371094 L 13.730469 -4.882812 C 12.695312 -3.722656 11.230469 -2.746094 10.128906 -2.5625 C 9.277344 -2.5625 8.359375 -2.992188 7.75 -3.660156 L 7.75 -3.90625 C 7.75 -3.964844 7.691406 -4.027344 7.691406 -4.089844 L 7.691406 -4.273438 C 7.628906 -4.453125 7.566406 -4.578125 7.566406 -4.761719 C 7.507812 -5.003906 7.507812 -5.1875 7.507812 -5.429688 C 7.507812 -5.554688 7.507812 -5.738281 7.566406 -5.859375 C 7.566406 -6.101562 7.566406 -6.285156 7.628906 -6.46875 L 7.628906 -7.078125 L 7.691406 -7.140625 C 7.691406 -7.203125 7.691406 -7.261719 7.75 -7.324219 C 7.871094 -7.507812 7.933594 -7.75 7.996094 -7.933594 L 8.117188 -8.789062 C 8.117188 -8.972656 8.117188 -9.152344 8.175781 -9.277344 Z M 9.09375 -19.773438 C 9.09375 -20.628906 8.847656 -21.296875 8.972656 -22.09375 C 9.335938 -22.398438 9.824219 -22.824219 10.253906 -23.007812 C 10.558594 -23.191406 10.863281 -23.3125 11.230469 -23.433594 C 11.351562 -23.496094 11.535156 -23.554688 11.71875 -23.554688 C 12.265625 -23.738281 12.753906 -23.738281 13.425781 -23.800781 L 13.546875 -23.800781 C 13.671875 -23.800781 13.792969 -23.800781 13.914062 -23.738281 C 13.976562 -23.738281 14.097656 -23.738281 14.160156 -23.679688 C 14.464844 -23.617188 14.769531 -23.375 15.011719 -23.191406 C 15.316406 -22.886719 15.5625 -22.519531 15.621094 -21.910156 C 15.011719 -18.675781 11.71875 -16.234375 8.726562 -15.257812 C 8.726562 -15.441406 8.726562 -15.621094 8.664062 -15.804688 L 8.847656 -18.003906 C 8.847656 -18.125 8.910156 -18.308594 8.910156 -18.429688 C 8.972656 -18.675781 8.972656 -18.980469 9.09375 -19.222656 Z M 9.09375 -19.773438 "/></g></g></g><g fill="#243363" fill-opacity="1"><g transform="translate(260.425664, 199.874987)"><g><path d="M 17.027344 -7.996094 C 16.964844 -8.605469 14.707031 -13.671875 14.160156 -13.914062 C 17.699219 -16.84375 22.945312 -20.75 22.945312 -25.816406 C 22.945312 -28.988281 19.652344 -31.976562 16.597656 -31.976562 C 13.363281 -31.976562 10.863281 -29.476562 8.847656 -27.15625 C 8.726562 -27.460938 8.664062 -27.828125 8.726562 -28.132812 C 8.359375 -28.804688 7.933594 -29.414062 7.382812 -29.964844 C 7.140625 -30.027344 6.957031 -30.085938 6.714844 -30.085938 C 5.859375 -30.085938 5.125 -29.539062 4.332031 -29.539062 L 4.273438 -29.597656 L 3.539062 -29.539062 C 2.808594 -29.476562 2.136719 -28.804688 2.136719 -28.074219 L 2.320312 -27.707031 L 2.808594 -27.890625 C 3.417969 -27.15625 3.480469 -25.875 3.355469 -24.960938 L 3.539062 -24.472656 C 3.113281 -23.191406 1.21875 -4.941406 1.21875 -2.441406 C 1.21875 -1.707031 2.136719 0.488281 2.929688 0.609375 L 3.722656 0.121094 C 4.332031 0.730469 5.25 1.160156 6.101562 1.160156 C 6.714844 1.160156 7.445312 0.730469 7.445312 0.0625 C 7.203125 -0.550781 7.019531 -1.21875 7.019531 -1.832031 C 7.019531 -3.480469 8.664062 -8.300781 8.664062 -12.082031 L 9.582031 -12.328125 L 10.070312 -11.898438 L 10.007812 -11.71875 C 13.121094 -9.214844 14.035156 2.683594 18.613281 2.683594 C 19.101562 2.683594 19.527344 2.683594 19.957031 2.378906 L 20.140625 2.441406 L 20.6875 2.195312 C 20.871094 1.832031 21.480469 0.976562 21.480469 0.550781 C 21.480469 -0.121094 21.054688 -0.550781 20.808594 -1.160156 C 20.871094 -1.039062 20.808594 -0.976562 20.75 -0.976562 C 20.6875 -0.976562 20.628906 -1.039062 20.628906 -1.160156 L 20.6875 -1.21875 C 20.503906 -1.648438 20.199219 -2.074219 19.894531 -2.441406 L 19.957031 -2.503906 C 19.894531 -2.683594 19.710938 -2.929688 19.710938 -3.113281 L 19.773438 -3.234375 L 19.222656 -4.148438 L 19.285156 -4.273438 C 18.980469 -4.636719 18.859375 -4.761719 18.859375 -4.761719 C 18.859375 -4.761719 19.039062 -4.515625 18.980469 -4.515625 L 18.492188 -5.003906 C 18.246094 -5.25 18.0625 -5.492188 17.941406 -5.796875 C 18.429688 -6.285156 17.515625 -6.226562 17.515625 -6.894531 L 17.394531 -6.957031 L 17.210938 -7.445312 L 17.269531 -7.628906 Z M 14.953125 -28.195312 C 15.867188 -28.195312 16.234375 -27.765625 16.234375 -26.851562 C 16.234375 -24.898438 14.464844 -20.503906 13.363281 -18.796875 C 12.511719 -17.453125 11.289062 -17.027344 10.128906 -16.050781 L 10.007812 -16.050781 L 9.703125 -15.804688 C 9.582031 -16.292969 9.214844 -16.84375 8.847656 -17.148438 L 8.789062 -17.699219 C 8.789062 -20.75 10.496094 -23.554688 10.496094 -26.363281 C 11.351562 -27.097656 12.144531 -28.074219 13.304688 -28.074219 C 13.425781 -28.074219 13.546875 -28.074219 13.730469 -28.011719 L 13.976562 -28.132812 Z M 14.953125 -28.195312 "/></g></g></g><g fill="#243363" fill-opacity="1"><g transform="translate(295.147471, 199.874987)"><g><path d="M 18.492188 -24.65625 C 18.550781 -25.507812 18.734375 -26.609375 18.613281 -27.523438 C 18.371094 -29.84375 14.648438 -31.246094 12.695312 -32.222656 L 11.898438 -31.796875 L 11.777344 -31.429688 C 11.535156 -31.246094 9.519531 -25.816406 9.09375 -25.019531 C 7.75 -22.457031 5.980469 -19.347656 5.25 -16.539062 C 4.578125 -15.621094 2.441406 -13.488281 2.5625 -12.328125 C 2.5625 -12.023438 2.867188 -11.59375 3.113281 -11.472656 L 3.785156 -11.535156 C 2.683594 -9.460938 1.527344 -6.285156 0.914062 -3.84375 L 0.488281 -3.234375 C 0.425781 -2.625 -0.304688 -0.855469 -0.730469 -0.425781 C -0.792969 0.367188 -1.097656 1.21875 -1.039062 2.074219 C -0.855469 2.378906 -0.792969 2.683594 -0.367188 2.683594 L 0.671875 2.074219 L 1.039062 2.074219 C 1.648438 1.832031 1.769531 1.039062 2.257812 0.609375 L 3.722656 -3.113281 L 3.785156 -3.113281 C 4.636719 -5.25 6.101562 -7.203125 7.140625 -9.277344 C 9.335938 -9.886719 11.472656 -10.128906 13.609375 -10.984375 C 13.851562 -8.542969 13.304688 -6.101562 13.609375 -3.601562 C 13.792969 -1.832031 14.953125 0 15.136719 1.769531 C 15.867188 2.5625 16.84375 4.882812 18.1875 4.882812 L 18.308594 4.882812 C 20.140625 4.699219 20.808594 4.210938 20.628906 2.378906 C 20.566406 1.890625 20.503906 1.464844 20.261719 1.097656 C 20.261719 0.914062 20.261719 -6.773438 20.140625 -8.117188 C 19.894531 -10.070312 19.222656 -13.914062 19.652344 -15.316406 C 19.832031 -15.5 21.175781 -17.027344 21.175781 -17.148438 C 21.117188 -17.882812 20.6875 -17.882812 20.078125 -17.882812 C 20.015625 -17.820312 19.773438 -17.574219 19.589844 -17.574219 C 19.527344 -17.574219 19.46875 -17.636719 19.40625 -17.757812 L 19.40625 -21.296875 C 19.039062 -22.398438 18.734375 -23.554688 18.492188 -24.65625 Z M 8.054688 -12.386719 C 8.300781 -13.609375 10.742188 -21.847656 11.230469 -22.761719 L 11.777344 -23.3125 L 11.839844 -23.3125 C 12.328125 -23.554688 12.816406 -23.863281 13.242188 -24.289062 C 13.304688 -24.105469 13.363281 -23.863281 13.425781 -23.679688 C 13.730469 -20.503906 13.121094 -17.148438 13.488281 -13.914062 C 11.898438 -13.242188 9.765625 -12.570312 8.054688 -12.386719 Z M 8.054688 -12.386719 "/></g></g></g></svg>